<?xml version="1.0" encoding="iso-8859-1"?>
<!-- Generator: Adobe Illustrator 19.0.0, SVG Export Plug-In . SVG Version: 6.00 Build 0)  -->
<svg version="1.1" id="Capa_1" xmlns="http://www.w3.org/2000/svg" xmlns:xlink="http://www.w3.org/1999/xlink" x="0px" y="0px"
	 viewBox="0 0 512 512" style="enable-background:new 0 0 512 512;" xml:space="preserve">
<path style="fill:#FDDD88;" d="M472,0.001H40c-22.056,0-40,17.944-40,40v256c0,22.056,17.944,40,40,40h432c22.056,0,40-17.944,40-40
	v-256C512,17.945,494.056,0.001,472,0.001z"/>
<g>
	<rect y="64" style="fill:#55697A;" width="512" height="80"/>
	<path style="fill:#55697A;" d="M144,240.001H40c-4.418,0-8-3.582-8-8s3.582-8,8-8h104c4.418,0,8,3.582,8,8
		S148.418,240.001,144,240.001z"/>
</g>
<path style="fill:#F4F6F7;" d="M232,160.001H40c-4.418,0-8,3.582-8,8v32c0,4.418,3.582,8,8,8h192c4.418,0,8-3.582,8-8v-32
	C240,163.582,236.418,160.001,232,160.001z"/>
<path style="fill:#FD8E61;" d="M468.678,224.21c-2.085-1.502-4.766-1.912-7.208-1.1l-42.117,14.04
	c-5.676,1.891-11.661,2.85-17.791,2.85c-22.332,0-40.759-12.363-41.647-12.968l-19.03-14.366c-2.846-2.148-6.769-2.154-9.62-0.016
	l-19.086,14.313c-1.185,0.809-19.505,13.035-41.74,13.036c-6.132,0-12.117-0.959-17.789-2.85l-42.119-14.04
	c-5.096-1.699-10.53,2.223-10.53,7.59v167.123c0,1.242,0.289,2.467,0.845,3.578l3.378,6.756
	c13.474,26.95,33.782,50.347,60.358,69.539c24.453,17.661,47.317,26.702,58.77,30.521l10.119,3.373c1.633,0.544,3.427,0.544,5.061,0
	l10.119-3.373c11.452-3.818,34.316-12.859,58.77-30.521c26.576-19.192,46.884-42.589,60.358-69.539l3.378-6.757
	c0.556-1.11,0.845-2.335,0.845-3.577V230.701C472,228.13,470.764,225.714,468.678,224.21z"/>
<path style="fill:#FD7239;" d="M347.351,505.167c-11.452-3.818-34.316-12.859-58.77-30.521
	c-26.576-19.192-46.884-42.589-60.358-69.539l-3.378-6.756c-0.556-1.111-0.845-2.336-0.845-3.578V227.65
	c0-0.016,0.003-0.032,0.003-0.048l-13.473-4.491c-5.096-1.699-10.53,2.224-10.53,7.59v167.123c0,1.242,0.289,2.467,0.845,3.578
	l3.378,6.756c13.474,26.95,33.782,50.347,60.358,69.539c24.453,17.661,47.317,26.702,58.77,30.521l10.119,3.373
	c1.633,0.544,3.427,0.544,5.061,0l10.119-3.373c1.166-0.389,2.456-0.834,3.847-1.335L347.351,505.167z"/>
<path style="fill:#808E9B;" d="M436.678,273.51c-2.086-1.502-4.767-1.912-7.208-1.1c-47.167,15.726-88.261-14.503-88.67-14.811
	c-2.844-2.133-6.756-2.133-9.6,0c-0.409,0.308-41.499,30.536-88.67,14.811c-5.096-1.699-10.53,2.224-10.53,7.59v110.27
	c0,1.242,0.289,2.467,0.845,3.578c28.822,57.644,88.879,80.096,100.625,84.012c1.633,0.544,3.427,0.544,5.061,0
	c11.746-3.916,71.803-26.368,100.625-84.012c0.556-1.111,0.845-2.336,0.845-3.578V280C440,277.43,438.764,275.015,436.678,273.51z"
	/>
<path style="fill:#6B7B8B;" d="M349.47,471.592c-11.746-3.916-71.803-26.368-100.625-84.012c-0.556-1.111-0.845-2.336-0.845-3.578
	v-109.97c-1.813-0.477-3.636-1.011-5.47-1.622c-5.096-1.699-10.53,2.224-10.53,7.59v110.27c0,1.242,0.289,2.467,0.845,3.578
	c28.822,57.644,88.879,80.096,100.625,84.012c1.633,0.544,3.427,0.544,5.061,0c2.782-0.928,8.278-2.897,15.424-6.126
	C352.48,472.105,350.915,472.074,349.47,471.592z"/>
<path style="fill:#49DFE5;" d="M393.031,318.368c-4.365-4.986-11.944-5.493-16.934-1.129l-54.262,47.479L305.6,343.07
	c-3.976-5.303-11.499-6.377-16.8-2.399c-5.302,3.976-6.376,11.498-2.399,16.8l24,32c4.129,5.508,12.319,6.365,17.502,1.831l64-56
	C396.89,330.938,397.396,323.357,393.031,318.368z"/>
<g>
</g>
<g>
</g>
<g>
</g>
<g>
</g>
<g>
</g>
<g>
</g>
<g>
</g>
<g>
</g>
<g>
</g>
<g>
</g>
<g>
</g>
<g>
</g>
<g>
</g>
<g>
</g>
<g>
</g>
</svg>
