<svg id="Layer_1" enable-background="new 0 0 512 512" height="512" viewBox="0 0 512 512" width="512" xmlns="http://www.w3.org/2000/svg"><g><g id="XMLID_2_"><g><g id="XMLID_1400_"><g id="XMLID_1423_"><g id="XMLID_1463_"><g id="XMLID_1771_"><g id="XMLID_1772_"><g id="XMLID_1773_"><g id="XMLID_1774_"><g id="XMLID_1775_"><g id="XMLID_1807_"><g id="XMLID_1809_"><g id="XMLID_1817_"><g id="XMLID_1819_"><g id="XMLID_1821_"><circle id="XMLID_1822_" cx="256" cy="256" fill="#fedd55" r="256"/></g></g></g></g></g></g></g></g></g></g></g></g></g></g></g><g><g><path d="m512 256c0-23.889-3.283-47.009-9.404-68.946l-126.598-126.598-234.584 396.5 45.641 45.641c21.936 6.12 45.056 9.403 68.945 9.403 141.385 0 256-114.615 256-256z" fill="#ffc627"/></g></g><g><g><path d="m162.495 82.203h187.01v300.789h-187.01z" fill="#fff"/><path d="m256 82.2h93.5v300.79h-93.5z" fill="#e9edf5"/><path d="m272.493 214.044c-2.596-.917-5.251-1.88-7.9-2.882v-42.27c6.601 1.58 10.556 4.903 10.963 5.257l6.52 6.013 12.12-13.142-6.57-6.061c-.509-.468-9.051-8.163-23.033-10.262v-17.573h-17.877v18.258c-1.327.292-2.673.628-4.049 1.043-12.787 3.852-22.342 14.795-24.936 28.56-2.365 12.55 1.656 24.651 10.493 31.583 4.682 3.672 10.51 7.036 18.492 10.589v53.6c-6.903-.509-11.689-2.197-19.526-7.324l-7.48-4.894-9.787 14.961 7.48 4.894c11.427 7.475 19.234 9.704 29.313 10.271v18.607h17.877v-19.317c20.055-3.934 31.77-20.472 34.366-35.919 3.34-19.861-7.049-37.129-26.466-43.992zm-33.236-15.543c-3.564-2.796-5.081-8.239-3.957-14.205 1.007-5.346 4.536-11.769 11.416-14.366v33.339c-2.807-1.524-5.346-3.112-7.459-4.768zm42.073 56.571c-1.376 8.183-7.075 16.858-16.736 20.314v-45.182c.645.231 1.277.46 1.941.695 16.517 5.839 15.5 19.978 14.795 24.173z" fill="#ffaa20"/><path d="m272.49 214.04c-2.59-.91-5.25-1.88-7.9-2.88v-42.27c6.6 1.58 10.56 4.9 10.97 5.26l6.52 6.01 12.12-13.14-6.57-6.06c-.51-.47-9.05-8.16-23.04-10.26v-17.58h-8.59v180.15h8.59v-19.31c20.06-3.94 31.77-20.48 34.37-35.92 3.34-19.86-7.05-37.13-26.47-44zm8.84 41.03c-1.38 8.19-7.08 16.86-16.74 20.32v-45.19c.65.24 1.28.46 1.95.7 16.51 5.84 15.49 19.98 14.79 24.17z" fill="#ff8900"/><g><path d="m351.194 463.658h-190.388c-17.373 0-31.507-14.134-31.507-31.507v-352.302c0-17.373 14.134-31.507 31.507-31.507h190.388c17.373 0 31.507 14.134 31.507 31.507v352.302c0 17.373-14.134 31.507-31.507 31.507zm-183.273-95.52h176.159v-281.175h-176.159z" fill="#436375"/></g><g><g><path d="m351.19 48.34h-95.19v38.62h88.08v281.18h-88.08v95.52h95.19c17.38 0 31.51-14.14 31.51-31.51v-352.3c0-17.37-14.13-31.51-31.51-31.51z" fill="#274a59"/></g></g><g><g><g><path d="m277.019 430.448h-42.039c-7.141 0-12.929-5.789-12.929-12.929v-4.633c0-7.14 5.788-12.929 12.929-12.929h42.039c7.141 0 12.929 5.788 12.929 12.929v4.633c0 7.14-5.788 12.929-12.929 12.929z" fill="#5a7784"/></g></g></g></g><g><g><g><g><path d="m289.95 412.89v4.63c0 7.14-5.79 12.93-12.93 12.93h-21.02v-30.49h21.02c7.14 0 12.93 5.79 12.93 12.93z" fill="#436375"/></g></g></g></g></g></g></svg>