<svg height="512" viewBox="0 0 64 64" width="512" xmlns="http://www.w3.org/2000/svg"><g id="Currency-Exchange-Online-Smartphone-Payment"><path d="m49 7v50a4 4 0 0 1 -4 4h-26a4.01 4.01 0 0 1 -4-4v-50a4 4 0 0 1 4-4h26a4 4 0 0 1 4 4z" fill="#5aaae7"/><path d="m49 23.45v33.55a4 4 0 0 1 -4 4h-26a3.98 3.98 0 0 1 -3.46-2c10.63-5.29 27.16-16.3 33.46-35.55z" fill="#3d9ae2"/><path d="m52 11a8.8 8.8 0 0 0 -3 .52 8.992 8.992 0 0 0 -4.09 14.02l-.91 5.46 4.71-2.63a2.469 2.469 0 0 0 .29.1 8.805 8.805 0 0 0 3 .53 9 9 0 0 0 0-18z" fill="#00ccb3"/><path d="m40 39.47v3.53h-16v-3.53a4.02 4.02 0 0 1 2.21-3.58l1.5-.75 2.29 2.86 2-2 2 2 2.29-2.86 1.5.75a4.02 4.02 0 0 1 2.21 3.58z" fill="#ff5023"/><path d="m36.29 35.14-2.29 2.86-2-2 2-2z" fill="#ed1c24"/><path d="m34 53a2.006 2.006 0 0 1 2 2 2.015 2.015 0 0 1 -2 2h-4a2.006 2.006 0 0 1 -2-2 2.015 2.015 0 0 1 2-2z" fill="#e6e7e8"/><path d="m32 36-2 2-2.29-2.86 2.29-1.14z" fill="#ed1c24"/><path d="m21 20a8.981 8.981 0 0 0 -6-8.48 8.8 8.8 0 0 0 -3-.52 9 9 0 0 0 0 18 8.805 8.805 0 0 0 3-.53 2.469 2.469 0 0 0 .29-.1l4.71 2.63-.91-5.46a9 9 0 0 0 1.91-5.54z" fill="#ffd422"/><path d="m34 31v3l-2 2-2-2v-3z" fill="#ffc477"/><path d="m34 31v1.46a3.974 3.974 0 0 1 -4 0v-1.46z" fill="#ffb655"/><path d="m37 23v1l-1 2-3-2-.83.83a4 4 0 0 1 -2.83 1.17h-1.34l-1-1 1-2-2-2h9a2.006 2.006 0 0 1 2 2z" fill="#57565c"/><path d="m36 26v2a4 4 0 0 1 -8 0v-2h1.34a4 4 0 0 0 2.83-1.17l.83-.83z" fill="#ffc477"/><g fill="#e6e7e8"><path d="m23 6h2v2h-2z"/><path d="m19 6h2v2h-2z"/><path d="m27 6h10v2h-10z"/></g><path d="m53 19h-2a1 1 0 0 1 0-2h2a1 1 0 0 1 1 1h2a3 3 0 0 0 -3-3v-1h-2v1a3 3 0 0 0 0 6h2a1 1 0 0 1 0 2h-2a1 1 0 0 1 -1-1h-2a3 3 0 0 0 3 3v1h2v-1a3 3 0 0 0 0-6z" fill="#ed1c24"/><path d="m13 19h-2a1 1 0 0 1 0-2h2a1 1 0 0 1 1 1h2a3 3 0 0 0 -3-3v-1h-2v1a3 3 0 0 0 0 6h2a1 1 0 0 1 0 2h-2a1 1 0 0 1 -1-1h-2a3 3 0 0 0 3 3v1h2v-1a3 3 0 0 0 0-6z" fill="#ed1c24"/></g></svg>